<svg width="88" height="80" viewBox="0 0 88 80" fill="none" xmlns="http://www.w3.org/2000/svg">
<path d="M87.5454 23.4465C87.5448 22.1056 87.1909 20.9206 86.4753 19.9037C85.7724 18.9036 84.7197 18.0655 83.3077 17.4028C71.6524 11.956 59.9858 6.52579 48.3343 1.07342C45.1931 -0.396351 42.1475 -0.342768 39.0296 1.1481C34.3904 3.36553 11.1637 14.1506 4.2425 17.3997C1.39213 18.7371 0.00513827 20.7838 0.00445316 23.444C0 34.3979 0.00445316 45.3515 0 56.3057C0.000685102 57.6172 0.339468 58.7791 1.02354 59.7808C1.7268 60.811 2.79419 61.6723 4.23873 62.3499C11.1603 65.599 34.3901 76.3833 39.0282 78.6013C42.1475 80.093 45.1931 80.1463 48.3353 78.676C59.9872 73.2233 71.6545 67.7934 83.3115 62.3466C84.7561 61.6692 85.8234 60.8074 86.5267 59.778C87.2097 58.7763 87.5492 57.6144 87.5499 56.3026C87.5499 56.3026 87.5499 34.4007 87.5454 23.4465Z" fill="#5C8DBC"/>
<path d="M43.9088 39.7681L1.02344 59.7808C1.72669 60.811 2.79408 61.6722 4.23862 62.3499C11.1602 65.599 34.39 76.3833 39.0281 78.6013C42.1474 80.093 45.193 80.1463 48.3352 78.676C59.9871 73.2233 71.6544 67.7934 83.3114 62.3466C84.7559 61.6692 85.8233 60.8074 86.5266 59.778L43.9088 39.7681Z" fill="#1A4674"/>
<path d="M31.2068 45.696C33.7023 49.2269 38.3935 51.6084 43.775 51.6084C49.1897 51.6084 53.9077 49.1967 56.3905 45.628L43.9089 39.7681L31.2068 45.696Z" fill="#1A4674"/>
<path d="M87.5456 23.4464C87.5449 22.1054 87.1911 20.9205 86.4755 19.9036L43.9091 39.768L86.5269 59.7779C87.2099 58.7762 87.5494 57.6143 87.5501 56.3025C87.5501 56.3025 87.5501 34.4006 87.5456 23.4464Z" fill="#1B598E"/>
<path d="M85.2021 41.1985H81.8719V43.8982H78.5409V41.1985H75.2109V38.4997H78.5409V35.8005H81.8719V38.4997H85.2021V41.1985Z" fill="white"/>
<path d="M73.0502 41.1985H69.7203V43.8982H66.39V41.1985H63.0597V38.4997H66.39V35.8005H69.7203V38.4997H73.0502V41.1985Z" fill="white"/>
<path d="M56.3906 45.6279C53.9078 49.1966 49.1898 51.6083 43.7751 51.6083C38.3936 51.6083 33.7024 49.2268 31.2069 45.6959C29.9946 43.9802 29.2975 41.9937 29.2975 39.8746C29.2975 33.3944 35.7796 28.1411 43.7751 28.1411C49.122 28.1411 53.7886 30.4929 56.2964 33.9877L68.9506 28.082C63.9209 21.0452 54.5305 16.311 43.7751 16.311C27.7177 16.311 14.701 26.861 14.701 39.8746C14.701 44.144 16.1024 48.1477 18.5517 51.6011C23.5687 58.6751 32.9858 63.4384 43.7751 63.4384C54.5843 63.4384 64.0161 58.656 69.0259 51.5611L56.3906 45.6279Z" fill="white"/>
</svg>
