<svg width="73" height="95" viewBox="0 0 73 95" fill="none" xmlns="http://www.w3.org/2000/svg">
<g clip-path="url(#clip0)">
<path d="M68.971 95.0004C71.1958 95.0004 73 92.6528 73 89.7572V5.24318C73 2.34717 71.1958 0 68.971 0H4.02897C1.80333 0 0 2.34717 0 5.24318V89.7572C0 92.6528 1.80333 95.0004 4.02897 95.0004H68.971Z" fill="#395185"/>
<path d="M50.3685 95.0004V58.2113H59.8577L61.2783 43.8741H50.3685V34.7199C50.3685 30.5689 51.2545 27.74 55.8287 27.74L61.6627 27.7367V14.9136C60.6533 14.7388 57.1903 14.3484 53.1616 14.3484C44.7501 14.3484 38.9917 21.0299 38.9917 33.3005V43.8741H29.4783V58.2113H38.9917V95.0004H50.3685Z" fill="white"/>
</g>
<defs>
<clipPath id="clip0">
<rect width="73" height="95" fill="white"/>
</clipPath>
</defs>
</svg>
