<svg width="169" height="101" viewBox="0 0 169 101" fill="none" xmlns="http://www.w3.org/2000/svg">
<path d="M84.5 100.701C131.168 100.701 169 78.1581 169 50.3504C169 22.5426 131.168 0 84.5 0C37.8319 0 0 22.5426 0 50.3504C0 78.1581 37.8319 100.701 84.5 100.701Z" fill="url(#paint0_radial)"/>
<path d="M84.5 96.96C129.345 96.96 165.699 76.0921 165.699 50.3504C165.699 24.6086 129.345 3.74072 84.5 3.74072C39.6549 3.74072 3.30078 24.6086 3.30078 50.3504C3.30078 76.0921 39.6549 96.96 84.5 96.96Z" fill="#6181B6"/>
<path d="M100.938 65.463L104.965 41.9712C105.889 36.6593 105.097 32.6941 102.72 30.2253C100.41 27.8312 96.4488 26.6341 90.6395 26.6341H83.6418L85.6223 14.963C85.6883 14.5141 85.6223 14.0653 85.3582 13.6912C85.0942 13.3171 84.7641 13.1675 84.368 13.1675H74.7297C74.0695 13.1675 73.5414 13.6912 73.4094 14.3645L69.1184 39.2779C68.7223 36.4349 67.7981 34.0408 66.2137 32.0956C63.375 28.4297 58.952 26.5593 52.9445 26.5593H34.3941C33.734 26.5593 33.2059 27.083 33.0738 27.7564L24.4258 78.3312C24.3598 78.7801 24.4258 79.229 24.6899 79.603C24.9539 79.9771 25.284 80.1267 25.6801 80.1267H35.3844C36.0445 80.1267 36.5727 79.603 36.7047 78.9297L38.8172 66.7349H46.0129C49.7758 66.7349 53.0106 66.286 55.4531 65.3882C58.0277 64.4156 60.3383 62.8445 62.3848 60.6749C64.0352 58.9541 65.4215 57.009 66.4777 54.9142L64.7613 65.0141C64.6953 65.463 64.7613 65.9119 65.0254 66.286C65.2895 66.6601 65.6195 66.8097 66.0156 66.8097H75.6539C76.3141 66.8097 76.8422 66.286 76.9742 65.6127L81.7274 37.9312H88.3289C91.1676 37.9312 91.9598 38.5297 92.2238 38.829C92.4219 39.0534 92.818 39.9512 92.3559 42.7193L88.527 65.089C88.461 65.5379 88.527 65.9867 88.791 66.3608C89.0551 66.7349 89.3852 66.8845 89.7813 66.8845H99.6836C100.278 66.6601 100.806 66.1364 100.938 65.463ZM56.3113 46.0112C55.7172 49.5275 54.5949 52.0712 52.9445 53.4927C51.2941 54.9141 48.5875 55.6623 45.0227 55.6623H40.7317L43.8344 37.5571H49.3797C53.4727 37.5571 55.1231 38.5297 55.7832 39.3527C56.6414 40.5497 56.8395 42.869 56.3113 46.0112Z" fill="white"/>
<path d="M142.132 32.0956C139.293 28.4297 134.87 26.5593 128.862 26.5593H110.18C109.52 26.5593 108.992 27.083 108.86 27.7564L100.212 78.2564C100.146 78.7052 100.212 79.1541 100.476 79.5282C100.74 79.9023 101.07 80.0519 101.466 80.0519H111.17C111.83 80.0519 112.359 79.5282 112.491 78.8549L114.603 66.6601H121.799C125.562 66.6601 128.796 66.2112 131.239 65.3134C133.814 64.3408 136.124 62.7697 138.171 60.6001C139.887 58.8045 141.339 56.7845 142.396 54.6149C143.452 52.4453 144.244 50.0512 144.706 47.4327C145.828 40.9238 144.97 35.8364 142.132 32.0956ZM132.031 46.0112C131.437 49.5275 130.315 52.0712 128.664 53.4927C127.014 54.9141 124.307 55.6623 120.743 55.6623H116.452L119.554 37.5571H125.1C129.193 37.5571 130.843 38.5297 131.503 39.3527C132.427 40.5497 132.625 42.869 132.031 46.0112Z" fill="white"/>
<path d="M49.3797 36.0606C53.0766 36.0606 55.5191 36.8088 56.7734 38.3799C58.0277 39.951 58.2918 42.5695 57.6316 46.3102C56.9715 50.2006 55.6512 53.0436 53.7367 54.6895C51.8223 56.3354 48.9176 57.1584 45.0227 57.1584H39.1473L42.7781 36.0606H49.3797ZM25.7461 78.5554H35.4504L37.7609 65.1636H46.0789C49.7758 65.1636 52.7465 64.7147 55.123 63.8169C57.4996 62.9191 59.6121 61.4976 61.5926 59.4028C63.243 57.6821 64.5633 55.8117 65.5535 53.7917C66.5438 51.7717 67.2699 49.5273 67.666 47.0584C68.7223 41.0732 67.9301 36.4347 65.3555 33.068C62.7809 29.7013 58.6879 28.0554 53.0766 28.0554H34.3941L25.7461 78.5554Z" fill="#000004"/>
<path d="M74.7958 14.6636H84.434L82.1235 28.0554H90.7055C96.1188 28.0554 99.8157 29.1028 101.862 31.2725C103.909 33.4421 104.503 36.8836 103.711 41.6717L99.6837 65.1636H89.9133L93.7422 42.7939C94.2044 40.2502 94.0063 38.5295 93.2801 37.6317C92.554 36.7339 90.9036 36.2102 88.461 36.2102H80.7372L75.786 65.1636H66.1477L74.7958 14.6636Z" fill="#000004"/>
<path d="M125.1 36.0606C128.797 36.0606 131.239 36.8088 132.493 38.3799C133.748 39.951 134.012 42.5695 133.352 46.3102C132.691 50.2006 131.371 53.0436 129.457 54.6895C127.542 56.3354 124.638 57.1584 120.743 57.1584H114.867L118.498 36.0606H125.1ZM101.466 78.5554H111.17L113.481 65.1636H121.799C125.496 65.1636 128.466 64.7147 130.843 63.8169C133.22 62.9191 135.332 61.4976 137.313 59.4028C138.963 57.6821 140.283 55.8117 141.273 53.7917C142.264 51.7717 142.99 49.5273 143.386 47.0584C144.442 41.0732 143.65 36.4347 141.075 33.068C138.501 29.7013 134.408 28.0554 128.797 28.0554H110.114L101.466 78.5554Z" fill="#000004"/>
<defs>
<radialGradient id="paint0_radial" cx="0" cy="0" r="1" gradientUnits="userSpaceOnUse" gradientTransform="translate(50.7342 17.707) scale(110.969 125.76)">
<stop stop-color="white"/>
<stop offset="0.5" stop-color="#4C6B97"/>
<stop offset="1" stop-color="#231F20"/>
</radialGradient>
</defs>
</svg>
