<svg width="73" height="95" viewBox="0 0 73 95" fill="none" xmlns="http://www.w3.org/2000/svg">
<path d="M73 11.5681C70.3141 13.4668 67.4276 14.7501 64.398 15.3273C67.4904 12.3725 69.8649 7.69399 70.9832 2.11948C68.0895 4.85502 64.8843 6.84187 61.4728 7.91276C58.7407 3.27294 54.8484 0.373535 50.5409 0.373535C42.2695 0.373535 35.5636 11.0624 35.5636 24.2464C35.5636 26.1175 35.6963 27.9396 35.9515 29.6868C23.5042 28.6913 12.4687 19.1869 5.08188 4.7435C3.79272 8.26944 3.05415 12.3704 3.05415 16.7455C3.05415 25.0279 5.69843 32.3351 9.71705 36.6161C7.26182 36.4923 4.95265 35.4184 2.93319 33.6303C2.93212 33.7299 2.93212 33.8299 2.93212 33.9304C2.93212 45.4974 8.09464 55.1465 14.9461 57.3393C13.6892 57.885 12.3661 58.1765 11.0001 58.1765C10.0351 58.1765 9.09676 58.0271 8.18249 57.7484C10.0882 67.2331 15.6192 74.1352 22.1729 74.328C17.0472 80.7308 10.5894 84.5474 3.5727 84.5474C2.36391 84.5474 1.17167 84.4346 0 84.2142C6.62792 90.9877 14.5004 94.9397 22.9582 94.9397C50.5059 94.9397 65.57 58.5622 65.57 27.0147C65.57 25.9796 65.5555 24.95 65.5267 23.9263C68.4527 20.5604 70.992 16.3556 73 11.5681Z" fill="#55ACEE"/>
</svg>
